<?xml version="1.0" encoding="utf-8"?>
<!-- Generator: Adobe Illustrator 25.2.0, SVG Export Plug-In . SVG Version: 6.00 Build 0)  -->
<svg version="1.1" id="Capa_1" xmlns="http://www.w3.org/2000/svg" xmlns:xlink="http://www.w3.org/1999/xlink" x="0px" y="0px"
	 viewBox="0 0 146 114.7" style="enable-background:new 0 0 146 114.7;" xml:space="preserve">
<style type="text/css">
	.st0{fill:#DE7047;}
</style>
<g>
	<path class="st0" d="M14,35.4c1.8,1.3,7.4,5.2,16.7,11.6c9.3,6.4,16.4,11.4,21.3,14.9c0.5,0.4,1.7,1.2,3.5,2.5
		c1.8,1.3,3.2,2.3,4.4,3.1c1.2,0.8,2.6,1.7,4.2,2.6c1.7,1,3.2,1.7,4.7,2.2c1.5,0.5,2.8,0.7,4.1,0.7H73h0.1c1.2,0,2.6-0.2,4.1-0.7
		c1.5-0.5,3-1.2,4.7-2.2c1.7-1,3.1-1.9,4.2-2.6s2.6-1.8,4.4-3.1c1.8-1.3,2.9-2.1,3.5-2.5c5-3.5,17.7-12.3,38.1-26.5
		c4-2.8,7.3-6.1,9.9-10c2.7-3.9,4-8,4-12.3c0-3.6-1.3-6.7-3.9-9.2S136.5,0,133,0H13C8.9,0,5.6,1.4,3.4,4.2C1.1,7.1,0,10.6,0,14.8
		C0,18.3,1.5,22,4.5,26S10.6,33.1,14,35.4z"/>
	<path class="st0" d="M137.9,44.1C120,56.1,106.5,65.5,97.3,72.2c-3.1,2.3-5.6,4.1-7.5,5.3c-1.9,1.3-4.5,2.6-7.7,3.9
		c-3.2,1.3-6.2,2-9,2H73h-0.1c-2.8,0-5.8-0.7-9-2s-5.8-2.6-7.7-3.9c-1.9-1.3-4.4-3.1-7.5-5.3c-7.3-5.4-20.8-14.7-40.5-28.1
		C5.1,42,2.4,39.7,0,37v64.7c0,3.6,1.3,6.7,3.8,9.2c2.6,2.6,5.6,3.8,9.2,3.8H133c3.6,0,6.7-1.3,9.2-3.8c2.6-2.6,3.8-5.6,3.8-9.2V37
		C143.7,39.6,140.9,42,137.9,44.1z"/>
</g>
</svg>
