<?xml version="1.0" encoding="utf-8"?>
<!-- Generator: Adobe Illustrator 25.2.0, SVG Export Plug-In . SVG Version: 6.00 Build 0)  -->
<svg version="1.1" id="Capa_1" xmlns="http://www.w3.org/2000/svg" xmlns:xlink="http://www.w3.org/1999/xlink" x="0px" y="0px"
	 viewBox="0 0 135.6 125.1" style="enable-background:new 0 0 135.6 125.1;" xml:space="preserve">
<style type="text/css">
	.st0{fill:#DE7047;}
</style>
<g>
	<path class="st0" d="M125.1,36.5H10.4C9,36.5,7.8,37,6.8,38s-1.5,2.3-1.5,3.7v78.2c0,1.4,0.5,2.6,1.5,3.7s2.3,1.5,3.7,1.5h114.7
		c1.4,0,2.6-0.5,3.7-1.5c1-1,1.5-2.3,1.5-3.7V41.7c0-1.4-0.5-2.6-1.5-3.7C127.8,37,126.6,36.5,125.1,36.5z M81.9,61
		c-1,1-2.3,1.5-3.7,1.5H57.4c-1.4,0-2.6-0.5-3.7-1.5s-1.5-2.3-1.5-3.7c0-1.4,0.5-2.6,1.5-3.7c1-1,2.3-1.5,3.7-1.5h20.9
		c1.4,0,2.6,0.5,3.7,1.5c1,1,1.5,2.3,1.5,3.7C83.4,58.8,82.9,60,81.9,61z"/>
	<path class="st0" d="M134,1.5c-1-1-2.3-1.5-3.7-1.5H5.2C3.8,0,2.6,0.5,1.5,1.5S0,3.8,0,5.2v20.9c0,1.4,0.5,2.6,1.5,3.7
		s2.3,1.5,3.7,1.5h125.1c1.4,0,2.6-0.5,3.7-1.5c1-1,1.5-2.3,1.5-3.7V5.2C135.6,3.8,135.1,2.6,134,1.5z"/>
</g>
</svg>
