<?xml version="1.0" encoding="utf-8"?>
<!-- Generator: Adobe Illustrator 25.2.0, SVG Export Plug-In . SVG Version: 6.00 Build 0)  -->
<svg version="1.1" id="Layer_1" xmlns="http://www.w3.org/2000/svg" xmlns:xlink="http://www.w3.org/1999/xlink" x="0px" y="0px"
	 viewBox="0 0 449.9 449.8" style="enable-background:new 0 0 449.9 449.8;" xml:space="preserve">
<style type="text/css">
	.st0{fill:#3B5998;}
</style>
<g>
	<path class="st0" d="M393.8,0H56.2C25.2,0,0,25.2,0,56.2v253.1c0,31,25.2,56.2,56.2,56.2h84.4v73.8c0,6.2,5.1,10.5,10.5,10.5
		c2.1,0,4.3-0.6,6.2-2.1l109.8-82.3h126.6c31,0,56.2-25.2,56.2-56.2v-253C450,25.2,424.8,0,393.8,0z M407.8,309.4
		c0,7.7-6.3,14.1-14.1,14.1H253.1l-11.2,8.4l-59.1,44.3v-52.7H56.2c-7.7,0-14.1-6.3-14.1-14.1V56.2c0-7.7,6.3-14.1,14.1-14.1h337.5
		c7.7,0,14.1,6.3,14.1,14.1L407.8,309.4L407.8,309.4z"/>
</g>
</svg>
