<?xml version="1.0" encoding="utf-8"?>
<!-- Generator: Adobe Illustrator 25.2.0, SVG Export Plug-In . SVG Version: 6.00 Build 0)  -->
<svg version="1.1" id="Layer_1" xmlns="http://www.w3.org/2000/svg" xmlns:xlink="http://www.w3.org/1999/xlink" x="0px" y="0px"
	 viewBox="0 0 427.2 389.3" style="enable-background:new 0 0 427.2 389.3;" xml:space="preserve">
<style type="text/css">
	.st0{fill:#30418F;stroke:#30418F;stroke-width:9.375000e-02;}
	.st1{fill:#FFFFFF;stroke:#FFFFFF;stroke-width:9.375000e-02;}
	.st2{fill:#E8E9E9;stroke:#E8E9E9;stroke-width:9.375000e-02;}
	.st3{fill:#7E8FBE;stroke:#7E8FBE;stroke-width:9.375000e-02;}
	.st4{fill:#6276AE;stroke:#6276AE;stroke-width:9.375000e-02;}
</style>
<path class="st0" d="M269,1c2.6-1,5.4-0.9,8.1-1c15.7,0.2,31.4,0.1,47,0.1c5.1-0.4,10.1,3.8,10,9c0.2,10.3-0.2,20.7,0.1,31
	c0.4,6.7-2.3,13-3.9,19.3c-1.8,6.9-5.5,13.4-5.3,20.7c0.1,19,0,38,0,57.1c21.4,0,42.8,0.1,64.2-0.1c2.5-0.1,4.9,0.6,7,1.9
	c9,5.9,19,10.1,28,16c2.4,1.5,2.8,4.5,2.9,7.1c-0.1,53.3-0.1,106.7-0.1,160c-0.3,8.2,0.6,16.4-0.3,24.5c-1.7,3.2-4.8,5.3-7.3,7.8
	c-9.6,8.4-19.1,16.9-28.6,25.4c-4.5,4-9,9.7-15.7,9.3c-41.3,0-82.7,0-124,0c-5.4,0-11.6,1-16.1-2.9c-11.3-9.1-23.2-17.4-34.5-26.5
	c-1-0.8-2.1-1.6-3.4-1.5c-8.4-0.6-16.7,0.1-24.9,0.9c-12.1,0.1-24.1,0-36.2-0.1c-0.1,5.7,0.2,11.4,0,17.1c0,2.6-2,4.6-3.2,6.8
	c-3.2,0.5-6.4,1.2-9.7,1.2c-37.3-0.1-74.7,0-112,0c-3.6-0.1-7.8-1-9.6-4.5c-2.2-4.8-1.2-10.3-1.4-15.5c0-66.3,0-132.7,0-199
	c0.1-3.1,0.4-6.4,1.8-9.1c1.9-3.2,5.9-3.7,9.2-3.9c36.6,0,73.3,0.1,110-0.1c3.7,0.2,8-0.6,11.2,1.9c1.6,1.4,3.7,2.9,3.6,5.3
	c0.4,6.7,0,13.5,0.1,20.2c22.6-2.3,44-13.5,59.4-30c4.6-3.9,6.5-9.8,8.9-15.1c5.5-10.9,10.4-22.2,15.8-33.3
	c5.7-12.8,12.1-25.3,17.8-38.1c4.3-8.5,7.6-17.5,12.1-25.9c4.3-9.1,8.4-18.2,12.7-27.3C264.3,6.5,265.3,2.3,269,1 M273.8,28.6
	c-2.4,3.6-4.2,7.5-5.8,11.4c-1.9,5-5.5,9.3-6.4,14.7c-0.6,0.6-1.2,1.3-1.8,2c-2.5,6.4-6.1,12.3-8.2,18.9c-3.7,5.9-5.5,12.8-9.3,18.7
	c-2.6,4-4,8.6-6.3,12.8c-2.2,3.8-3,8.3-4.9,12.2c-2.1,5.3-5.9,9.8-7.1,15.4c-1.1,3.7-3.5,6.7-5.2,10.1c-2.2,3.6-2.3,8.3-5.5,11.4
	c-3.5,4.8-8.2,8.5-12.5,12.6c-3.7,2.2-5.7,6.4-9.7,8.2c-4,2.8-8.4,5-12.4,7.8c-3.4,2.5-7.7,3-11.6,4.4c-3.7,1.1-6.7,3.6-10.5,4.2
	c-6.1,1.4-12.4,2.8-18.7,3.2c-2.9,2.4-1.8,6.3-2,9.5c0.2,45.1,0,90.1,0.1,135.2c10.4-0.1,20.7-0.3,31.1-0.1c9,0.2,18-1.8,27-1.3
	c4.9-0.4,10,0.2,14,3.1c6.2,4.9,12.3,9.9,18.7,14.5c5.2,5,11.7,8.3,16.6,13.6c20.9,0.2,41.8,0,62.7,0.1c22.8-0.2,45.6,0.2,68.5-0.2
	c4.8-3.9,9.2-8.3,13.7-12.6c4.1-3.2,8.1-6.5,11.7-10.3c2.9-3.1,7.1-5.3,8.9-9.3c0.8-3.2,0.4-6.5,0.4-9.7c-0.3-13.5,0.5-27-0.4-40.4
	c0.3-39.2-0.1-78.4,0.2-117.7c-0.1-1.7,0-3.5-0.8-5.1c-4.8-2.4-9.6-5-14-8.2c-5.1-3.1-11.2-4.1-17.2-3.9c-17.7,0.2-35.3-0.1-53,0.2
	c-4.8,0.8-9.6,0.1-14.2-1.5c-2.7-5.7-3.2-12.2-2.8-18.4c0-18,0-36-0.1-54c0.1-7.6,3.5-14.5,5.2-21.8c2.1-4.1,3.1-8.7,4-13.3
	c0-7.5,0.3-15.1-0.7-22.6c0.6-1.7,0.7-3.5,0.8-5.3c-12.2-0.3-24.3,0.2-36.5-0.3C277.6,20.6,275.4,24.5,273.8,28.6 M17.9,169.9
	c-0.1,10.8-0.5,21.6,0.2,32.4c0.1,3,0.3,5.9,0.3,8.8c0,51.6,0.1,103.2,0,154.7c33.1,0,66.3,0,99.4,0c-0.1-51.5,0.1-103.1,0-154.7
	c0-2.9,0.2-5.8,0.3-8.8c0.7-10.8,0.3-21.6,0.2-32.4C84.8,169.7,51.4,169.7,17.9,169.9z"/>
<path class="st1" d="M273.8,28.6c1.6-4.1,3.8-8,6-11.8c12.2,0.5,24.3,0,36.5,0.3c-0.1,1.8-0.2,3.6-0.8,5.3
	c-6.8,9.4-12.8,19.3-19.3,28.9c-3,4.4-6.3,8.9-6.8,14.4c-0.9,7.4-1,14.8-1.8,22.3c-1.8,14.6-2.3,29.3-4.1,43.9c-0.5,4-1,8-0.5,12.1
	c2.8,2.2,6.4,2.8,9.8,3.8c5.8,1.3,11.5,2.9,17.1,4.7c4.6,1.6,9.4,2.3,14.2,1.5c17.7-0.3,35.3,0,53-0.2c6-0.2,12.1,0.8,17.2,3.9
	c4.4,3.2,9.2,5.8,14,8.2c0.8,1.6,0.7,3.4,0.8,5.1c-0.3,39.3,0.1,78.5-0.2,117.7c-10.6,9.8-21.4,19.4-31.4,29.8
	c-3.9,3.6-7.1,8.4-12.1,10.6c-6.3,1.6-12.9,0.5-19.3,0.6c-10.7-0.5-21.3,1.1-32,1.1c-11.4-0.6-22.6,1.3-34,1.1
	c-10,0.2-20-1.2-30.1-1.1c-3.7,0.1-7.6-0.6-10.7-2.9c-7.9-5.5-15.8-10.9-23.6-16.5c-3.6-2.7-8.1-3.9-12.6-3.8
	c-21.6,0.4-43.1,0-64.7,0.2c0.1-30.6,0-61.1,0-91.7c0.1-6.5,0.2-13-0.5-19.5c6.3-0.4,12.6-1.8,18.7-3.2c3.8-0.6,6.8-3.1,10.5-4.2
	c3.9-1.4,8.2-1.9,11.6-4.4c4-2.8,8.4-5,12.4-7.8c4-1.8,6-6,9.7-8.2c4.3-4.1,9-7.8,12.5-12.6c3.2-3.1,3.3-7.8,5.5-11.4
	c1.7-3.4,4.1-6.4,5.2-10.1c1.2-5.6,5-10.1,7.1-15.4c1.9-3.9,2.7-8.4,4.9-12.2c2.3-4.2,3.7-8.8,6.3-12.8c3.8-5.9,5.6-12.8,9.3-18.7
	c2.1-6.6,5.7-12.5,8.2-18.9c0.6-0.7,1.2-1.4,1.8-2c0.9-5.4,4.5-9.7,6.4-14.7C269.6,36.1,271.4,32.2,273.8,28.6z"/>
<path class="st2" d="M296.2,51.3c6.5-9.6,12.5-19.5,19.3-28.9c1,7.5,0.7,15.1,0.7,22.6c-0.9,4.6-1.9,9.2-4,13.3
	c-1.7,7.3-5.1,14.2-5.2,21.8c0.1,18,0.1,36,0.1,54c-0.4,6.2,0.1,12.7,2.8,18.4c-5.6-1.8-11.3-3.4-17.1-4.7c-3.4-1-7-1.6-9.8-3.8
	c-0.5-4.1,0-8.1,0.5-12.1c1.8-14.6,2.3-29.3,4.1-43.9c0.8-7.5,0.9-14.9,1.8-22.3C289.9,60.2,293.2,55.7,296.2,51.3z"/>
<path class="st3" d="M17.9,169.9c33.5-0.2,66.9-0.2,100.4,0c0.1,10.8,0.5,21.6-0.2,32.4c-33.3,0.2-66.7,0.2-100,0
	C17.4,191.5,17.8,180.7,17.9,169.9z"/>
<path class="st2" d="M135.9,206.1c0.2-3.2-0.9-7.1,2-9.5c0.7,6.5,0.6,13,0.5,19.5c0,30.6,0.1,61.1,0,91.7
	c21.6-0.2,43.1,0.2,64.7-0.2c4.5-0.1,9,1.1,12.6,3.8c7.8,5.6,15.7,11,23.6,16.5c3.1,2.3,7,3,10.7,2.9c10.1-0.1,20.1,1.3,30.1,1.1
	c11.4,0.2,22.6-1.7,34-1.1c10.7,0,21.3-1.6,32-1.1c6.4-0.1,13,1,19.3-0.6c5-2.2,8.2-7,12.1-10.6c10-10.4,20.8-20,31.4-29.8
	c0.9,13.4,0.1,26.9,0.4,40.4c0,3.2,0.4,6.5-0.4,9.7c-1.8,4-6,6.2-8.9,9.3c-3.6,3.8-7.6,7.1-11.7,10.3c-4.5,4.3-8.9,8.7-13.7,12.6
	c-22.9,0.4-45.7,0-68.5,0.2c-20.9-0.1-41.8,0.1-62.7-0.1c-4.9-5.3-11.4-8.6-16.6-13.6c-6.4-4.6-12.5-9.6-18.7-14.5
	c-4-2.9-9.1-3.5-14-3.1c-9-0.5-18,1.5-27,1.3c-10.4-0.2-20.7,0-31.1,0.1C135.9,296.2,136.1,251.2,135.9,206.1z"/>
<path class="st4" d="M18.1,202.3c33.3,0.2,66.7,0.2,100,0c-0.1,3-0.3,5.9-0.3,8.8c0.1,51.6-0.1,103.2,0,154.7c-33.1,0-66.3,0-99.4,0
	c0.1-51.5,0-103.1,0-154.7C18.4,208.2,18.2,205.3,18.1,202.3z"/>
</svg>
