<?xml version="1.0" encoding="utf-8"?>
<!-- Generator: Adobe Illustrator 20.1.0, SVG Export Plug-In . SVG Version: 6.00 Build 0)  -->
<svg version="1.1" id="Layer_1" xmlns="http://www.w3.org/2000/svg" xmlns:xlink="http://www.w3.org/1999/xlink" x="0px" y="0px"
	 viewBox="0 0 56.8 100" style="enable-background:new 0 0 56.8 100;" xml:space="preserve">
<path d="M56.8,42.2V35c0-1.1-0.8-2.1-1.9-2.3v-4.1c0-4.6-3.1-8.5-7.3-9.8c-1.9-2.1-3.2-9.8-3.5-15.3C44,2.3,43.1,0,40.6,0H14.3
	c-2.5,0-3.4,2.3-3.5,3.6c-0.3,5.5-1.6,13.2-3.5,15.3C3.1,20.1,0,24,0,28.7v42.6c0,4.6,3.1,8.5,7.2,9.7c1.9,2,3.2,9.8,3.6,15.4
	c0.1,1.2,1,3.6,3.5,3.6h26.3c2.5,0,3.4-2.3,3.5-3.6c0.3-5.5,1.6-13.4,3.6-15.4c4.2-1.3,7.2-5.1,7.2-9.7v-3.5c0,0,0,0,0,0
	c0.8-0.3,1.4-1.1,1.4-2.1V55c0-1-0.7-1.9-1.6-2.1v-8.3C55.9,44.3,56.8,43.3,56.8,42.2z M53.4,67.8v3.5c0,4.7-3.9,8.6-8.6,8.6H10.2
	c-4.7,0-8.6-3.9-8.6-8.6V28.7c0-4.7,3.9-8.6,8.6-8.6h34.6c4.7,0,8.6,3.9,8.6,8.6v4.1c-2,0.7-2.2,4.9-2.2,5.8c0,0.9,0.1,4.9,2,5.8
	v8.6c-0.8,0.3-1.3,1.1-1.3,2.1v10.7C51.9,66.7,52.5,67.5,53.4,67.8L53.4,67.8z M55.2,35v0.7h-0.8c-0.1,0-0.3,0.1-0.3,0.2
	c0,0.1-0.1,0.1-0.1,0.2s0,0.1,0.1,0.2c0.1,0.1,0.2,0.2,0.3,0.2h0.8v1.7h-0.8c-0.1,0-0.3,0.1-0.3,0.2c0,0.1-0.1,0.1-0.1,0.2
	s0,0.1,0.1,0.2c0.1,0.1,0.2,0.2,0.3,0.2h0.8v1.7h-0.8c-0.1,0-0.3,0.1-0.3,0.2c0,0.1-0.1,0.1-0.1,0.2s0,0.1,0.1,0.2
	c0.1,0.1,0.2,0.2,0.3,0.2h0.8v0.7c0,0.4-0.4,0.8-0.8,0.8h-0.3h-0.2c-0.5,0-1.2-1.9-1.2-4.4c0-2.4,0.6-4.3,1.2-4.3h0.2h0.3
	C54.9,34.3,55.2,34.6,55.2,35z M12.2,6h30.6c0.1,1.1,0.2,2.5,0.5,4H11.7C11.9,8.5,12.1,7.1,12.2,6z M14.3,1.6h26.3
	c1.7,0,2,1.9,2,2.1c0,0.3,0.1,0.9,0.1,1.5H12.3c0-0.6,0.1-1.1,0.1-1.5C12.4,3.6,12.6,1.6,14.3,1.6z M11.6,10.7
	C11.6,10.7,11.7,10.7,11.6,10.7l31.7,0c0.2,1.3,0.5,2.7,0.8,4H10.8C11.1,13.4,11.4,12,11.6,10.7z M10.6,15.5h33.8
	c0.3,1.1,0.7,2.2,1.2,3.1c-0.3,0-0.5,0-0.8,0H10.2c-0.3,0-0.5,0-0.8,0C9.8,17.7,10.2,16.6,10.6,15.5z M10.8,85.3h33.4
	c-0.3,1.3-0.6,2.7-0.8,4H11.7c0,0-0.1,0-0.1,0C11.4,88,11.1,86.6,10.8,85.3z M42.7,94H12.2c-0.1-1.1-0.2-2.5-0.5-4h31.5
	C43,91.5,42.8,92.9,42.7,94z M40.6,98.4H14.3c-1.7,0-2-1.9-2-2.1c0-0.3-0.1-0.9-0.1-1.5h30.4c0,0.6-0.1,1.1-0.1,1.5
	C42.6,96.4,42.4,98.4,40.6,98.4z M44.4,84.5H10.6c-0.3-1.2-0.8-2.2-1.2-3.1c0.3,0,0.6,0,0.8,0h34.6c0.3,0,0.6,0,0.8,0
	C45.1,82.3,44.7,83.4,44.4,84.5z M54.8,65.7c0,0.4-0.3,0.7-0.6,0.7c0,0,0,0,0,0c-0.4,0-0.7-0.3-0.7-0.7V55c0-0.4,0.3-0.7,0.7-0.7
	c0,0,0,0,0,0c0.4,0,0.6,0.3,0.6,0.7V65.7z"/>
<path d="M43.1,23.2H11.8c-3.9,0-7,3.2-7,7v39.3c0,3.9,3.2,7,7,7h31.3c3.9,0,7-3.2,7-7V30.2C50.1,26.3,47,23.2,43.1,23.2z M48.6,69.6
	c0,3-2.5,5.5-5.5,5.5H11.8c-3,0-5.5-2.5-5.5-5.5V30.2c0-3,2.5-5.5,5.5-5.5h31.3c3,0,5.5,2.5,5.5,5.5V69.6z"/>
<circle cx="11.6" cy="48.2" r="0.8"/>
<circle cx="43.4" cy="48.2" r="0.8"/>
<circle cx="27.5" cy="32.3" r="0.8"/>
<circle cx="27.5" cy="64.1" r="0.8"/>
<circle cx="19.5" cy="34.4" r="0.8"/>
<circle cx="35.4" cy="62" r="0.8"/>
<circle cx="13.7" cy="40.3" r="0.8"/>
<circle cx="41.2" cy="56.2" r="0.8"/>
<circle cx="19.5" cy="62" r="0.8"/>
<circle cx="35.4" cy="34.4" r="0.8"/>
<circle cx="13.7" cy="56.2" r="0.8"/>
<circle cx="41.2" cy="40.3" r="0.8"/>
<path d="M40.5,37.4c-0.3-0.3-0.8-0.4-1.1-0.1L27.4,47.6l-7.1-4.7c-0.4-0.2-0.8-0.1-1.1,0.2s-0.1,0.8,0.2,1.1l7.6,5.1c0,0,0,0,0,0
	v12.3c0,0.2,0.2,0.4,0.4,0.4s0.4-0.2,0.4-0.4V49.3c0.1,0,0.1-0.1,0.2-0.1l12.4-10.7C40.7,38.2,40.7,37.7,40.5,37.4z"/>
</svg>
