<svg id="Layer_1" data-name="Layer 1" xmlns="http://www.w3.org/2000/svg" viewBox="0 0 87.5 87.5"><defs><style>.cls-1{fill:#78cccd;}</style></defs><path class="cls-1" d="M106.25,64.8a14.11,14.11,0,0,1-8.17,12.77L87.5,82.45V88a9.37,9.37,0,0,1-9.37,9.37h-50A9.37,9.37,0,0,1,18.75,88V19.24a9.38,9.38,0,0,1,9.37-9.38h50a9.38,9.38,0,0,1,9.37,9.38v3.12h4.69a14.08,14.08,0,0,1,14.06,14.07ZM29.3,19.24a1.17,1.17,0,0,0-1.18,1.17V86.82A1.18,1.18,0,0,0,29.3,88H77a1.18,1.18,0,0,0,1.18-1.17V20.41A1.17,1.17,0,0,0,77,19.24ZM48.44,73.93a4.69,4.69,0,0,1-9.38,0V33.3a4.69,4.69,0,0,1,9.38,0ZM67.19,33.3V73.93a4.69,4.69,0,0,1-9.38,0V33.3a4.69,4.69,0,0,1,9.38,0Zm25-1.56H87.5V72.13l6.65-3.07a4.71,4.71,0,0,0,2.73-4.26V36.43A4.7,4.7,0,0,0,92.19,31.74Z" transform="translate(-18.75 -9.86)"/></svg>