<svg id="Layer_1" data-name="Layer 1" xmlns="http://www.w3.org/2000/svg" viewBox="0 0 125 87.5"><defs><style>.cls-1{fill:#78cccd;}</style></defs><path class="cls-1" d="M109.32,97.36H9.45c-9.3,0-11.92-12.5-7-12.5H116.33C121.21,84.86,118.63,97.36,109.32,97.36ZM18.75,59.86V14.55h0a4.68,4.68,0,0,1,4.68-4.68h17.2v12.5l-7.55,7.55a6.23,6.23,0,0,0-1.83,4.42v13a6.25,6.25,0,0,0,6.25,6.25H50a6.25,6.25,0,0,0,6.25-6.25v-13a6.23,6.23,0,0,0-1.83-4.42l-7.54-7.55V9.86H100a25,25,0,0,1,0,50H93.75A18.76,18.76,0,0,1,75,78.61H37.5A18.76,18.76,0,0,1,18.75,59.86Zm75-12.5H100a12.5,12.5,0,0,0,0-25H93.75Z" transform="translate(0 -9.86)"/></svg>