<svg id="Layer_1" data-name="Layer 1" xmlns="http://www.w3.org/2000/svg" viewBox="0 0 100 87.5"><defs><style>.cls-1{fill:#78cccd;}</style></defs><path class="cls-1" d="M100,56.78A21.88,21.88,0,0,1,78.13,78.63H75A18.74,18.74,0,0,1,56.25,97.36H18.75A18.74,18.74,0,0,1,0,78.63V41.17a6.24,6.24,0,0,1,6.25-6.25h12.5v12.4a6.25,6.25,0,0,0,12.5,0V34.92H78.13A21.89,21.89,0,0,1,100,56.78ZM31.66,28.67H6.25V16.19A6.24,6.24,0,0,1,12.5,9.94H34.43a6.19,6.19,0,0,1,4.81,2.42l-4.38,4.38A12.39,12.39,0,0,0,31.66,28.67Zm7.6-7.52,9.47-9.45a6.26,6.26,0,0,1,8.85,0l9.47,9.45a6.17,6.17,0,0,1,.86,7.54H38.42A6.2,6.2,0,0,1,39.26,21.15ZM87.5,56.78a9.37,9.37,0,0,0-9.37-9.36H75V66.15h3.13A9.39,9.39,0,0,0,87.5,56.78Z" transform="translate(0 -9.87)"/></svg>