<svg id="Layer_1" data-name="Layer 1" xmlns="http://www.w3.org/2000/svg" viewBox="0 0 100 100"><defs><style>.cls-1{fill:#78cccd;}</style></defs><path class="cls-1" d="M62.5,17.68V20.8a1.56,1.56,0,0,0,1.56,1.56H94.89l-3.41,12.5H64.06a1.56,1.56,0,0,0-1.56,1.57v3.12a1.56,1.56,0,0,0,1.56,1.56H89.77l-3.41,12.5H64.06a1.56,1.56,0,0,0-1.56,1.57V58.3a1.56,1.56,0,0,0,1.56,1.56h20.6l-3.41,12.5h-50L29.54,53.61H9.38A9.37,9.37,0,0,1,0,44.24V13A9.38,9.38,0,0,1,9.38,3.61H100l-3.41,12.5H64.06A1.56,1.56,0,0,0,62.5,17.68ZM28.41,41.11l-2.27-25H12.5v25Zm65.34,50v6.25a6.25,6.25,0,0,1-6.25,6.25H25a6.25,6.25,0,0,1-6.25-6.25V91.11a12.5,12.5,0,0,1,12.5-12.5h50A12.5,12.5,0,0,1,93.75,91.11Zm-31.25,0a6.25,6.25,0,1,0-6.25,6.25A6.25,6.25,0,0,0,62.5,91.11Z" transform="translate(0 -3.61)"/></svg>