<svg id="Layer_1" data-name="Layer 1" xmlns="http://www.w3.org/2000/svg" viewBox="0 0 100.01 87.48"><defs><style>.cls-1{fill:#78cccd;}</style></defs><path class="cls-1" d="M99.94,17,89.08,86.62A12.5,12.5,0,0,1,76.7,97.34H23.38A12.5,12.5,0,0,1,11,86.62L.06,17A6.25,6.25,0,0,1,6.25,9.86h87.5A6.25,6.25,0,0,1,99.94,17ZM86.45,22.36H13.56l5.19,33V63a12.52,12.52,0,0,0,12.5,12.5H44.83l8.83,8.85a12.57,12.57,0,0,0,17.69,0l8.85-8.85a12.53,12.53,0,0,0,3.65-8.85,12.39,12.39,0,0,0-3-8.09ZM25,63V50.49a6.25,6.25,0,0,1,6.25-6.25h12.5A6.24,6.24,0,0,1,50,50.49v2.15l-5.17,5.15a12.5,12.5,0,0,0-3.66,8.85,12.33,12.33,0,0,0,.28,2.6H31.25A6.25,6.25,0,0,1,25,63Zm24.24-.76,8.85-8.85a6.26,6.26,0,0,1,8.85,0l8.84,8.85a6.23,6.23,0,0,1,0,8.84l-8.84,8.85a6.26,6.26,0,0,1-8.85,0l-8.85-8.85A6.25,6.25,0,0,1,49.24,62.23Z" transform="translate(0 -9.86)"/></svg>