<?xml version="1.0" encoding="utf-8"?>
<!-- Generator: Adobe Illustrator 20.1.0, SVG Export Plug-In . SVG Version: 6.00 Build 0)  -->
<svg version="1.1" id="Layer_1" xmlns="http://www.w3.org/2000/svg" xmlns:xlink="http://www.w3.org/1999/xlink" x="0px" y="0px"
	 viewBox="0 0 263.1 214.4" style="enable-background:new 0 0 263.1 214.4;" xml:space="preserve">
<style type="text/css">
	.st0{fill:#163140;}
	.st1{fill:#2D5366;}
	.st2{fill:#FFC50D;}
	.st3{fill:#269681;}
	.st4{fill:#FFFFFF;}
	.st5{fill:#F26122;}
</style>
<g id="XMLID_77_">
	<g id="XMLID_1268_">
		<g id="XMLID_1302_">
			<circle id="XMLID_1304_" class="st0" cx="164.8" cy="67.8" r="23.1"/>
			<circle id="XMLID_1303_" class="st1" cx="164.8" cy="67.8" r="19.3"/>
		</g>
		<path id="XMLID_1295_" class="st2" d="M164.8,32C145,32,128.9,48,128.9,67.8s16.1,35.9,35.9,35.9s35.9-16.1,35.9-35.9
			S184.6,32,164.8,32z M137.7,62.2l1.4-4.4c1.6-4.8,7.7-6.1,11.1-2.4l3.1,3.5c3.4,3.8,1.4,9.8-3.5,10.8l-4.5,1
			C140.3,71.7,136.1,67,137.7,62.2z M160.6,83.3l-0.5,4.6c-0.5,5-6.3,7.6-10.4,4.6l-3.8-2.7c-4.1-3-3.4-9.2,1.2-11.3l4.2-1.9
			C156.1,74.6,161.2,78.3,160.6,83.3z M159.4,55.1l-2.3-4c-2.5-4.4,0.6-9.8,5.7-9.8h4.6c5.1,0,8.2,5.5,5.7,9.8l-2.3,4
			C168.3,59.5,162,59.5,159.4,55.1z M182.4,90.4l-3.8,2.7c-4.1,3-9.9,0.4-10.4-4.6l-0.5-4.6c-0.5-5,4.6-8.7,9.2-6.7l4.2,1.9
			C185.8,81.2,186.5,87.5,182.4,90.4z M184.3,71.6l-4.5-1c-4.9-1.1-6.9-7.1-3.5-10.8l3.1-3.5c3.4-3.8,9.6-2.4,11.1,2.4l1.4,4.4
			C193.5,67.9,189.2,72.6,184.3,71.6z"/>
		<path id="XMLID_1292_" class="st3" d="M164.8,32C145,32,128.9,48,128.9,67.8s16.1,35.9,35.9,35.9s35.9-16.1,35.9-35.9
			S184.6,32,164.8,32z M164.8,99.3c-17.4,0-31.4-14.1-31.4-31.4c0-17.4,14.1-31.4,31.4-31.4c17.4,0,31.4,14.1,31.4,31.4
			C196.2,85.2,182.1,99.3,164.8,99.3z"/>
		<g id="XMLID_1287_">
			<circle id="XMLID_1291_" class="st1" cx="164.4" cy="68.4" r="3.7"/>
			<path id="XMLID_1288_" class="st1" d="M164.4,62.3c-3.4,0-6.1,2.7-6.1,6.1c0,3.4,2.7,6.1,6.1,6.1c3.4,0,6.1-2.7,6.1-6.1
				C170.5,65,167.8,62.3,164.4,62.3z M164.4,73.8c-3,0-5.4-2.4-5.4-5.4c0-3,2.4-5.4,5.4-5.4c3,0,5.4,2.4,5.4,5.4
				C169.8,71.4,167.4,73.8,164.4,73.8z"/>
		</g>
	</g>
	<path id="XMLID_504_" class="st1" d="M168.4,122.2V69.6c0-1.9-1.6-3.5-3.5-3.5c-1.9,0-3.5,1.6-3.5,3.5v52.6H168.4z"/>
	<g id="XMLID_1267_">
		<g id="XMLID_1284_">
			<circle id="XMLID_1286_" class="st0" cx="67.6" cy="59.5" r="38.2"/>
			<circle id="XMLID_1285_" class="st1" cx="67.6" cy="59.5" r="32"/>
		</g>
		<path id="XMLID_1277_" class="st2" d="M67.6,0C34.7,0,8.1,26.6,8.1,59.5c0,32.8,26.6,59.5,59.5,59.5c32.8,0,59.5-26.6,59.5-59.5
			C127,26.6,100.4,0,67.6,0z M22.6,50.1l2.4-7.3c2.6-8,12.8-10.1,18.4-3.9l5.2,5.7c5.6,6.2,2.4,16.2-5.8,17.9l-7.5,1.6
			C27,65.8,20,58,22.6,50.1z M60.7,85.1l-0.8,7.7c-0.9,8.3-10.4,12.6-17.2,7.7l-6.2-4.5c-6.8-4.9-5.7-15.3,2-18.7l7-3.1
			C53.1,70.6,61.6,76.8,60.7,85.1z M58.7,38.4l-3.9-6.7c-4.2-7.3,1-16.3,9.4-16.3H72c8.4,0,13.6,9.1,9.4,16.3l-3.9,6.7
			C73.4,45.6,62.9,45.6,58.7,38.4z M96.8,96.9l-6.2,4.5c-6.8,4.9-16.3,0.7-17.2-7.7l-0.8-7.7c-0.9-8.3,7.6-14.5,15.2-11.1l7,3.1
			C102.5,81.6,103.6,92,96.8,96.9z M99.9,65.7l-7.5-1.6c-8.2-1.7-11.4-11.7-5.8-17.9l5.2-5.7c5.6-6.2,15.8-4,18.4,3.9l2.4,7.3
			C115.1,59.6,108.1,67.4,99.9,65.7z"/>
		<path id="XMLID_1274_" class="st3" d="M67.6,0C34.7,0,8.1,26.6,8.1,59.5s26.6,59.5,59.5,59.5c32.8,0,59.5-26.6,59.5-59.5
			S100.4,0,67.6,0z M67.6,111.6c-28.8,0-52.1-23.3-52.1-52.1S38.8,7.3,67.6,7.3s52.1,23.3,52.1,52.1S96.4,111.6,67.6,111.6z"/>
		<g id="XMLID_1269_">
			<circle id="XMLID_1273_" class="st1" cx="67" cy="60.4" r="6.2"/>
			<path id="XMLID_1270_" class="st1" d="M67,50.3c-5.6,0-10.1,4.5-10.1,10.1c0,5.6,4.5,10.1,10.1,10.1c5.6,0,10.1-4.5,10.1-10.1
				C77.1,54.8,72.6,50.3,67,50.3z M67,69.3c-5,0-9-4-9-9c0-5,4-9,9-9c5,0,9,4,9,9C76,65.3,72,69.3,67,69.3z"/>
		</g>
	</g>
	<path id="XMLID_469_" class="st1" d="M72,132V61.8c0-2.6-2.1-4.7-4.7-4.7c-2.6,0-4.7,2.1-4.7,4.7V132H72z"/>
	<polygon id="XMLID_295_" class="st1" points="263.1,127.3 188,141.3 188,180.9 263.1,194.9 	"/>
	<rect id="XMLID_297_" y="140.6" class="st1" width="30.8" height="40.2"/>
	<rect id="XMLID_1266_" x="12" y="109.7" class="st2" width="197.1" height="104.7"/>
	<rect id="XMLID_312_" x="12" y="118.5" class="st1" width="197.1" height="8.4"/>
	<rect id="XMLID_314_" x="12" y="200.1" class="st1" width="197.1" height="8.4"/>
	<rect id="XMLID_299_" x="127" y="147.9" class="st4" width="68.9" height="35"/>
	<rect id="XMLID_477_" x="127" y="135.2" class="st1" width="68.9" height="7.4"/>
	<circle id="XMLID_440_" class="st5" cx="33.9" cy="145.7" r="9.2"/>
</g>
</svg>
