<?xml version="1.0" encoding="utf-8"?>
<!-- Generator: Adobe Illustrator 20.1.0, SVG Export Plug-In . SVG Version: 6.00 Build 0)  -->
<svg version="1.1" id="Layer_1" xmlns="http://www.w3.org/2000/svg" xmlns:xlink="http://www.w3.org/1999/xlink" x="0px" y="0px"
	 viewBox="0 0 260.9 217.5" style="enable-background:new 0 0 260.9 217.5;" xml:space="preserve">
<style type="text/css">
	.st0{fill:#38343B;}
	.st1{fill:#FFC50D;}
	.st2{fill:#F26122;}
	.st3{fill:#FFFFFF;}
</style>
<g id="XMLID_697_">
	<rect id="XMLID_645_" class="st0" width="260.9" height="171.7"/>
	
		<rect id="XMLID_1083_" x="63.3" y="-25.9" transform="matrix(-1.836970e-16 1 -1 -1.836970e-16 216.3194 -44.6063)" class="st1" width="134.2" height="223.5"/>
	<rect id="XMLID_168_" x="101.4" y="160.5" class="st0" width="58.1" height="34.7"/>
	<path id="XMLID_1082_" class="st0" d="M190.7,217.5H70.2c-6.6,0-10.9-7-7.9-12.9l5.5-10.7c1.5-3,4.6-4.8,7.9-4.8h109.5
		c3.3,0,6.4,1.9,7.9,4.8l5.5,10.7C201.6,210.4,197.3,217.5,190.7,217.5z"/>
	<rect id="XMLID_230_" x="48" y="49.3" class="st2" width="165" height="79.8"/>
	<g id="XMLID_257_">
		<path id="XMLID_258_" class="st3" d="M76.7,119v-58h12v22.1h22.6V60.9h12v58h-12V93.1H88.8V119H76.7z"/>
		<path id="XMLID_260_" class="st3" d="M169.1,62.2c4.1,1.3,7.4,3.8,9.9,7.4c2,2.9,3.4,6,4.1,9.4c0.7,3.4,1.1,6.6,1.1,9.6
			c0,7.7-1.5,14.3-4.6,19.6c-4.2,7.2-10.7,10.8-19.5,10.8h-25v-58h25C163.7,61,166.7,61.4,169.1,62.2z M146.8,71v37.9H158
			c5.7,0,9.7-2.8,12-8.5c1.2-3.1,1.9-6.8,1.9-11.1c0-5.9-0.9-10.4-2.8-13.6c-1.9-3.2-5.5-4.7-11.1-4.7H146.8z"/>
	</g>
</g>
</svg>
