<?xml version="1.0" encoding="utf-8"?>
<!-- Generator: Adobe Illustrator 20.1.0, SVG Export Plug-In . SVG Version: 6.00 Build 0)  -->
<svg version="1.1" id="Layer_1" xmlns="http://www.w3.org/2000/svg" xmlns:xlink="http://www.w3.org/1999/xlink" x="0px" y="0px"
	 viewBox="0 0 253.3 169.2" style="enable-background:new 0 0 253.3 169.2;" xml:space="preserve">
<style type="text/css">
	.st0{fill:#EEA620;}
	.st1{fill:#FFC50F;}
	.st2{fill:#FFFFFF;}
	.st3{fill:#163140;}
</style>
<g id="XMLID_104_">
	<path id="XMLID_35_" class="st0" d="M252.8,43.6c-24.1,0-43.6-19.5-43.6-43.6H43.7c0,24.1-19.5,43.6-43.6,43.6c-0.1,0-0.1,0-0.2,0
		v81.2c0.1,0,0.1,0,0.2,0c24.1,0,43.6,19.5,43.6,43.6c0,0.3,0,0.5,0,0.8h165.5c0-0.3,0-0.5,0-0.8c0-24.1,19.5-43.6,43.6-43.6
		c0.2,0,0.3,0,0.5,0V43.6C253.1,43.6,253,43.6,252.8,43.6z"/>
	<path id="XMLID_1127_" class="st1" d="M48.4,164.3c-2-23.3-20.4-41.9-43.6-44.1V48.2C27.8,46,46.1,27.8,48.4,4.9h156.2
		c2.3,23,20.8,41.3,43.8,43.4v71.9c-23.3,2.1-41.9,20.8-43.9,44.2H48.4z"/>
	<path id="XMLID_58_" class="st2" d="M199.1,158.2H53.8l-0.5-2.2c-4.6-19.8-20.4-35.7-40.1-40.6l-2.2-0.5V53.5l2.2-0.5
		c19.7-4.8,35.1-20.1,40-39.8l0.5-2.2h145.6l0.5,2.2c4.9,19.6,20.7,35.2,40.3,39.9l2.2,0.5v61.2l-2.2,0.5
		c-19.9,4.8-35.8,20.7-40.5,40.7L199.1,158.2z M58.3,152.4h136.3c5.6-20.3,21.7-36.5,41.9-42.1V58.1c-9.9-2.8-18.9-8-26.2-15.3
		c-7.3-7.3-12.7-16.3-15.5-26.1H58.1c-2.8,9.8-8.1,18.7-15.4,26c-7.3,7.2-16.2,12.5-26,15.3v52.4C36.8,116.1,52.8,132.3,58.3,152.4z
		"/>
	<g id="XMLID_816_">
		<path id="XMLID_817_" class="st3" d="M61.9,65.1v6.8H50.3v31.7h-8.1V71.9H30.6v-6.8H61.9z"/>
		<path id="XMLID_819_" class="st3" d="M73.9,103.7h-8V65.1h8V103.7z"/>
		<path id="XMLID_821_" class="st3" d="M85.2,69.1c3.1-3.2,7.1-4.8,11.9-4.8c6.4,0,11.1,2.1,14.1,6.4c1.6,2.4,2.5,4.8,2.6,7.2h-8.1
			c-0.5-1.8-1.2-3.2-2-4.2c-1.4-1.7-3.6-2.5-6.4-2.5c-2.9,0-5.1,1.2-6.8,3.5c-1.7,2.4-2.5,5.7-2.5,10c0,4.3,0.9,7.6,2.6,9.7
			c1.7,2.2,4,3.2,6.7,3.2c2.8,0,4.9-0.9,6.3-2.8c0.8-1,1.5-2.5,2-4.5h8c-0.7,4.2-2.5,7.6-5.3,10.3c-2.8,2.6-6.5,4-10.9,4
			c-5.5,0-9.8-1.8-12.9-5.3c-3.1-3.6-4.7-8.5-4.7-14.7C79.8,78,81.6,72.8,85.2,69.1z"/>
		<path id="XMLID_823_" class="st3" d="M120.3,65.1h7.9V81l14.9-15.9h10.4L137.7,81l16.6,22.7H144l-11.9-16.8l-3.9,3.9v12.9h-7.9
			V65.1z"/>
		<path id="XMLID_825_" class="st3" d="M187.4,71.9H167v8.2h18.7v6.7H167v9.9h21.4v6.9h-29.2V65.1h28.3V71.9z"/>
		<path id="XMLID_827_" class="st3" d="M222.7,65.1v6.8h-11.5v31.7H203V71.9h-11.6v-6.8H222.7z"/>
	</g>
	<g id="XMLID_113_">
		<polygon id="XMLID_1104_" class="st2" points="71.5,25.1 75.1,32.4 83.1,33.5 77.3,39.2 78.6,47.2 71.5,43.4 64.3,47.2 65.7,39.2 
			59.9,33.5 67.9,32.4 		"/>
		<polygon id="XMLID_1103_" class="st2" points="99.4,25.1 103,32.4 111,33.5 105.2,39.2 106.6,47.2 99.4,43.4 92.3,47.2 93.6,39.2 
			87.8,33.5 95.8,32.4 		"/>
		<polygon id="XMLID_1102_" class="st2" points="127.4,25.1 131,32.4 139,33.5 133.2,39.2 134.6,47.2 127.4,43.4 120.2,47.2 
			121.6,39.2 115.8,33.5 123.8,32.4 		"/>
		<polygon id="XMLID_1101_" class="st2" points="155.3,25.1 158.9,32.4 166.9,33.5 161.1,39.2 162.5,47.2 155.3,43.4 148.2,47.2 
			149.5,39.2 143.7,33.5 151.8,32.4 		"/>
		<polygon id="XMLID_1100_" class="st2" points="183.3,25.1 186.9,32.4 194.9,33.5 189.1,39.2 190.5,47.2 183.3,43.4 176.1,47.2 
			177.5,39.2 171.7,33.5 179.7,32.4 		"/>
	</g>
	<g id="XMLID_72_">
		<polygon id="XMLID_119_" class="st2" points="71.5,116.1 75.1,123.4 83.1,124.6 77.3,130.2 78.6,138.2 71.5,134.4 64.3,138.2 
			65.7,130.2 59.9,124.6 67.9,123.4 		"/>
		<polygon id="XMLID_117_" class="st2" points="99.4,116.1 103,123.4 111,124.6 105.2,130.2 106.6,138.2 99.4,134.4 92.3,138.2 
			93.6,130.2 87.8,124.6 95.8,123.4 		"/>
		<polygon id="XMLID_115_" class="st2" points="127.4,116.1 131,123.4 139,124.6 133.2,130.2 134.6,138.2 127.4,134.4 120.2,138.2 
			121.6,130.2 115.8,124.6 123.8,123.4 		"/>
		<polygon id="XMLID_114_" class="st2" points="155.3,116.1 158.9,123.4 166.9,124.6 161.1,130.2 162.5,138.2 155.3,134.4 
			148.2,138.2 149.5,130.2 143.7,124.6 151.8,123.4 		"/>
		<polygon id="XMLID_112_" class="st2" points="183.3,116.1 186.9,123.4 194.9,124.6 189.1,130.2 190.5,138.2 183.3,134.4 
			176.1,138.2 177.5,130.2 171.7,124.6 179.7,123.4 		"/>
	</g>
</g>
</svg>
