<?xml version="1.0" encoding="utf-8"?>
<!-- Generator: Adobe Illustrator 20.1.0, SVG Export Plug-In . SVG Version: 6.00 Build 0)  -->
<svg version="1.1" id="Layer_1" xmlns="http://www.w3.org/2000/svg" xmlns:xlink="http://www.w3.org/1999/xlink" x="0px" y="0px"
	 viewBox="0 0 264.1 165.3" style="enable-background:new 0 0 264.1 165.3;" xml:space="preserve">
<style type="text/css">
	.st0{fill:#163140;}
	.st1{fill:#F26122;}
	.st2{fill:#FFC400;}
	.st3{opacity:0.42;fill:#FFFFFF;enable-background:new    ;}
	.st4{opacity:0.23;fill:#FFFFFF;enable-background:new    ;}
</style>
<g id="XMLID_97_">
	<path id="XMLID_17_" class="st0" d="M133.2,81.5h-2.4H0v83.8h118.3l2.9-12c0.8-3.4,3.9-5.8,7.4-5.8h2.2h2.4h2.2
		c3.5,0,6.5,2.4,7.4,5.8l2.9,12H264V81.5H133.2z"/>
	<rect id="XMLID_830_" x="12.6" y="94.2" class="st1" width="94.7" height="58.5"/>
	<rect id="XMLID_14_" x="156.7" y="94.2" class="st2" width="94.7" height="58.5"/>
	<path id="XMLID_851_" class="st0" d="M89.5,2.9L0,81.6h22.9L94,19.1l0,0c9.1,9.2,17.1,15.7,19.8,13.3c4.5-3.8-6.2-25.7-6.2-25.7
		C104.4-0.3,95.3-2.2,89.5,2.9z"/>
	<path id="XMLID_103_" class="st0" d="M174.6,2.9l89.5,78.7h-22.9l-71.1-62.4l0,0c-9.1,9.2-17.1,15.7-19.8,13.3
		c-4.5-3.8,6.2-25.7,6.2-25.7C159.7-0.3,168.7-2.2,174.6,2.9z"/>
	<polygon id="XMLID_151_" class="st3" points="35.8,94.2 12.6,125.5 12.6,152.7 32.7,152.7 75.9,94.2 	"/>
	<polygon id="XMLID_152_" class="st4" points="87.3,94.2 44.1,152.7 63.3,152.7 106.5,94.2 	"/>
	<polygon id="XMLID_149_" class="st4" points="195.6,94.2 156.8,146.8 156.8,152.7 192.5,152.7 235.7,94.2 	"/>
	<polygon id="XMLID_150_" class="st4" points="251.4,94.2 247.1,94.2 203.9,152.7 223.1,152.7 251.4,114.3 	"/>
</g>
</svg>
